<mxfile host="app.diagrams.net" modified="2024-03-22T05:43:22.193Z" agent="Mozilla/5.0 (Macintosh; Intel Mac OS X 10_15_7) AppleWebKit/605.1.15 (KHTML, like Gecko) Version/17.4 Safari/605.1.15" etag="IeUaTGkQPjpGhCSLXgZs" version="24.0.7" type="device">
  <diagram name="Page-1" id="aaaa8250-4180-3840-79b5-4cada1eebb92">
    <mxGraphModel dx="1912" dy="985" grid="1" gridSize="10" guides="1" tooltips="1" connect="1" arrows="1" fold="1" page="1" pageScale="1" pageWidth="850" pageHeight="1100" background="none" math="0" shadow="0">
      <root>
        <mxCell id="0" />
        <mxCell id="1" parent="0" />
        <mxCell id="FXx3duRdWhhqkTk7xM2C-178" value="" style="group" vertex="1" connectable="0" parent="1">
          <mxGeometry x="860" y="630" width="280" height="238" as="geometry" />
        </mxCell>
        <mxCell id="FXx3duRdWhhqkTk7xM2C-126" value="" style="rounded=0;whiteSpace=wrap;html=1;fillColor=#dae8fc;strokeColor=#6c8ebf;" vertex="1" parent="FXx3duRdWhhqkTk7xM2C-178">
          <mxGeometry width="280" height="111" as="geometry" />
        </mxCell>
        <mxCell id="FXx3duRdWhhqkTk7xM2C-120" value="AI&lt;div&gt;Service&lt;/div&gt;" style="shape=image;html=1;verticalAlign=top;verticalLabelPosition=bottom;labelBackgroundColor=#ffffff;imageAspect=0;aspect=fixed;image=https://cdn4.iconfinder.com/data/icons/success-filloutline/64/brain-think-brainstorm-creative-idea-128.png" vertex="1" parent="FXx3duRdWhhqkTk7xM2C-178">
          <mxGeometry x="15.620000000000118" y="150" width="88" height="88" as="geometry" />
        </mxCell>
        <mxCell id="FXx3duRdWhhqkTk7xM2C-130" value="" style="curved=1;endArrow=none;html=1;rounded=0;entryX=0.995;entryY=0.63;entryDx=0;entryDy=0;entryPerimeter=0;exitX=1;exitY=0.5;exitDx=0;exitDy=0;endFill=0;startArrow=classic;startFill=1;" edge="1" parent="FXx3duRdWhhqkTk7xM2C-178" source="FXx3duRdWhhqkTk7xM2C-120" target="FXx3duRdWhhqkTk7xM2C-123">
          <mxGeometry width="50" height="50" relative="1" as="geometry">
            <mxPoint x="-290" y="280" as="sourcePoint" />
            <mxPoint x="-240" y="230" as="targetPoint" />
            <Array as="points">
              <mxPoint x="160" y="170" />
            </Array>
          </mxGeometry>
        </mxCell>
        <mxCell id="FXx3duRdWhhqkTk7xM2C-127" value="" style="edgeStyle=orthogonalEdgeStyle;rounded=0;orthogonalLoop=1;jettySize=auto;html=1;" edge="1" parent="FXx3duRdWhhqkTk7xM2C-178" source="FXx3duRdWhhqkTk7xM2C-123" target="FXx3duRdWhhqkTk7xM2C-124">
          <mxGeometry relative="1" as="geometry" />
        </mxCell>
        <mxCell id="FXx3duRdWhhqkTk7xM2C-123" value="AI" style="aspect=fixed;sketch=0;html=1;dashed=0;whitespace=wrap;fillColor=#2875E2;strokeColor=#ffffff;points=[[0.005,0.63,0],[0.1,0.2,0],[0.9,0.2,0],[0.5,0,0],[0.995,0.63,0],[0.72,0.99,0],[0.5,1,0],[0.28,0.99,0]];shape=mxgraph.kubernetes.icon2;kubernetesLabel=1;prIcon=api;labelPosition=center;verticalLabelPosition=bottom;align=center;verticalAlign=top;" vertex="1" parent="FXx3duRdWhhqkTk7xM2C-178">
          <mxGeometry x="30.700000000000045" y="10.5" width="72.92" height="70" as="geometry" />
        </mxCell>
        <mxCell id="FXx3duRdWhhqkTk7xM2C-124" value="AI&lt;div&gt;Database&lt;/div&gt;" style="verticalLabelPosition=bottom;aspect=fixed;html=1;shape=mxgraph.salesforce.data;spacingTop=-25;" vertex="1" parent="FXx3duRdWhhqkTk7xM2C-178">
          <mxGeometry x="200.70000000000005" y="15.5" width="48.6" height="60" as="geometry" />
        </mxCell>
        <mxCell id="FXx3duRdWhhqkTk7xM2C-177" value="" style="group" vertex="1" connectable="0" parent="1">
          <mxGeometry x="1200" y="60" width="260" height="230" as="geometry" />
        </mxCell>
        <mxCell id="FXx3duRdWhhqkTk7xM2C-176" value="" style="rounded=0;whiteSpace=wrap;html=1;fillColor=#d5e8d4;strokeColor=#82b366;" vertex="1" parent="FXx3duRdWhhqkTk7xM2C-177">
          <mxGeometry width="260" height="230" as="geometry" />
        </mxCell>
        <mxCell id="FXx3duRdWhhqkTk7xM2C-115" value="" style="edgeStyle=orthogonalEdgeStyle;rounded=0;orthogonalLoop=1;jettySize=auto;html=1;" edge="1" parent="FXx3duRdWhhqkTk7xM2C-177" target="FXx3duRdWhhqkTk7xM2C-117">
          <mxGeometry relative="1" as="geometry">
            <mxPoint x="44.999999999999545" y="45" as="sourcePoint" />
          </mxGeometry>
        </mxCell>
        <mxCell id="FXx3duRdWhhqkTk7xM2C-116" value="Account" style="aspect=fixed;sketch=0;html=1;dashed=0;whitespace=wrap;fillColor=#2875E2;strokeColor=none;points=[[0.005,0.63,0],[0.1,0.2,0],[0.9,0.2,0],[0.5,0,0],[0.995,0.63,0],[0.72,0.99,0],[0.5,1,0],[0.28,0.99,0]];shape=mxgraph.kubernetes.icon2;kubernetesLabel=1;prIcon=api;labelPosition=center;verticalLabelPosition=bottom;align=center;verticalAlign=top;" vertex="1" parent="FXx3duRdWhhqkTk7xM2C-177">
          <mxGeometry x="20" y="10" width="72.92" height="70" as="geometry" />
        </mxCell>
        <mxCell id="FXx3duRdWhhqkTk7xM2C-117" value="Account&lt;div&gt;Database&lt;/div&gt;" style="verticalLabelPosition=bottom;aspect=fixed;html=1;shape=mxgraph.salesforce.data;spacingTop=-17;" vertex="1" parent="FXx3duRdWhhqkTk7xM2C-177">
          <mxGeometry x="190" y="15" width="48.6" height="60" as="geometry" />
        </mxCell>
        <mxCell id="FXx3duRdWhhqkTk7xM2C-172" value="" style="edgeStyle=orthogonalEdgeStyle;rounded=0;orthogonalLoop=1;jettySize=auto;html=1;" edge="1" parent="FXx3duRdWhhqkTk7xM2C-177" target="FXx3duRdWhhqkTk7xM2C-174">
          <mxGeometry relative="1" as="geometry">
            <mxPoint x="44.999999999999545" y="155" as="sourcePoint" />
          </mxGeometry>
        </mxCell>
        <mxCell id="FXx3duRdWhhqkTk7xM2C-173" value="Workspace" style="aspect=fixed;sketch=0;html=1;dashed=0;whitespace=wrap;fillColor=#2875E2;strokeColor=none;points=[[0.005,0.63,0],[0.1,0.2,0],[0.9,0.2,0],[0.5,0,0],[0.995,0.63,0],[0.72,0.99,0],[0.5,1,0],[0.28,0.99,0]];shape=mxgraph.kubernetes.icon2;kubernetesLabel=1;prIcon=api;labelPosition=center;verticalLabelPosition=bottom;align=center;verticalAlign=top;" vertex="1" parent="FXx3duRdWhhqkTk7xM2C-177">
          <mxGeometry x="20" y="120" width="72.92" height="70" as="geometry" />
        </mxCell>
        <mxCell id="FXx3duRdWhhqkTk7xM2C-174" value="Workspace&lt;br&gt;&lt;div&gt;Database&lt;/div&gt;" style="verticalLabelPosition=bottom;aspect=fixed;html=1;shape=mxgraph.salesforce.data;spacingTop=-17;" vertex="1" parent="FXx3duRdWhhqkTk7xM2C-177">
          <mxGeometry x="190" y="125" width="48.6" height="60" as="geometry" />
        </mxCell>
        <mxCell id="FXx3duRdWhhqkTk7xM2C-43" value="API Gateway" style="image;aspect=fixed;html=1;points=[];align=center;fontSize=12;image=img/lib/azure2/compute/Azure_Spring_Cloud.svg;spacingTop=5;" vertex="1" parent="1">
          <mxGeometry x="722" y="416" width="68" height="68" as="geometry" />
        </mxCell>
        <mxCell id="FXx3duRdWhhqkTk7xM2C-44" style="edgeStyle=orthogonalEdgeStyle;rounded=0;orthogonalLoop=1;jettySize=auto;html=1;entryX=0.017;entryY=0.511;entryDx=0;entryDy=0;entryPerimeter=0;" edge="1" parent="1" source="FXx3duRdWhhqkTk7xM2C-32" target="FXx3duRdWhhqkTk7xM2C-43">
          <mxGeometry relative="1" as="geometry" />
        </mxCell>
        <mxCell id="FXx3duRdWhhqkTk7xM2C-153" value="Restful" style="edgeLabel;html=1;align=center;verticalAlign=middle;resizable=0;points=[];" vertex="1" connectable="0" parent="FXx3duRdWhhqkTk7xM2C-44">
          <mxGeometry x="0.2487" relative="1" as="geometry">
            <mxPoint x="1" as="offset" />
          </mxGeometry>
        </mxCell>
        <mxCell id="FXx3duRdWhhqkTk7xM2C-64" value="" style="swimlane;startSize=0;dashed=1;strokeWidth=2;" vertex="1" parent="1">
          <mxGeometry x="20" y="330" width="580" height="260" as="geometry">
            <mxRectangle x="20" y="330" width="50" height="40" as="alternateBounds" />
          </mxGeometry>
        </mxCell>
        <mxCell id="FXx3duRdWhhqkTk7xM2C-32" value="App" style="swimlane;startSize=20;horizontal=1;childLayout=flowLayout;flowOrientation=north;resizable=0;interRankCellSpacing=50;containerType=tree;fontSize=12;" vertex="1" parent="FXx3duRdWhhqkTk7xM2C-64">
          <mxGeometry x="281.63" y="50" width="248" height="140" as="geometry" />
        </mxCell>
        <mxCell id="FXx3duRdWhhqkTk7xM2C-21" value="Angular" style="shape=image;html=1;verticalAlign=top;verticalLabelPosition=bottom;labelBackgroundColor=#ffffff;imageAspect=0;aspect=fixed;image=https://cdn1.iconfinder.com/data/icons/ionicons-fill-vol-1/512/logo-angular-128.png;horizontal=1;labelPosition=center;align=center;spacingTop=-7;" vertex="1" parent="FXx3duRdWhhqkTk7xM2C-32">
          <mxGeometry x="20" y="40" width="80" height="80" as="geometry" />
        </mxCell>
        <mxCell id="FXx3duRdWhhqkTk7xM2C-22" value="Tauri" style="sketch=0;outlineConnect=0;fontColor=#232F3E;gradientColor=none;fillColor=#232F3D;strokeColor=none;dashed=0;verticalLabelPosition=bottom;verticalAlign=top;align=center;html=1;fontSize=12;fontStyle=0;aspect=fixed;pointerEvents=1;shape=mxgraph.aws4.external_toolkit;spacingTop=-5;" vertex="1" parent="FXx3duRdWhhqkTk7xM2C-32">
          <mxGeometry x="160" y="40.00000000000001" width="68" height="78" as="geometry" />
        </mxCell>
        <mxCell id="FXx3duRdWhhqkTk7xM2C-61" style="edgeStyle=orthogonalEdgeStyle;rounded=0;orthogonalLoop=1;jettySize=auto;html=1;entryX=0;entryY=0.5;entryDx=0;entryDy=0;" edge="1" parent="FXx3duRdWhhqkTk7xM2C-64" source="FXx3duRdWhhqkTk7xM2C-57" target="FXx3duRdWhhqkTk7xM2C-32">
          <mxGeometry relative="1" as="geometry" />
        </mxCell>
        <mxCell id="FXx3duRdWhhqkTk7xM2C-57" value="Client" style="outlineConnect=0;dashed=0;verticalLabelPosition=bottom;verticalAlign=top;align=center;html=1;shape=mxgraph.aws3.mobile_client;fillColor=#D2D3D3;gradientColor=none;" vertex="1" parent="FXx3duRdWhhqkTk7xM2C-64">
          <mxGeometry x="61.63" y="23" width="40.5" height="63" as="geometry" />
        </mxCell>
        <mxCell id="FXx3duRdWhhqkTk7xM2C-62" style="edgeStyle=orthogonalEdgeStyle;rounded=0;orthogonalLoop=1;jettySize=auto;html=1;entryX=0;entryY=0.5;entryDx=0;entryDy=0;" edge="1" parent="FXx3duRdWhhqkTk7xM2C-64" source="FXx3duRdWhhqkTk7xM2C-58" target="FXx3duRdWhhqkTk7xM2C-32">
          <mxGeometry relative="1" as="geometry">
            <Array as="points">
              <mxPoint x="191.63" y="186" />
              <mxPoint x="191.63" y="120" />
            </Array>
          </mxGeometry>
        </mxCell>
        <mxCell id="FXx3duRdWhhqkTk7xM2C-58" value="Client" style="outlineConnect=0;dashed=0;verticalLabelPosition=bottom;verticalAlign=top;align=center;html=1;shape=mxgraph.aws3.management_console;fillColor=#D2D3D3;gradientColor=none;" vertex="1" parent="FXx3duRdWhhqkTk7xM2C-64">
          <mxGeometry x="50.38" y="154" width="63" height="63" as="geometry" />
        </mxCell>
        <mxCell id="FXx3duRdWhhqkTk7xM2C-69" value="Analytics" style="verticalLabelPosition=bottom;aspect=fixed;html=1;shape=mxgraph.salesforce.analytics;spacingTop=-7;labelPosition=center;align=center;verticalAlign=top;spacing=10;" vertex="1" parent="1">
          <mxGeometry x="726" y="250" width="60" height="58.8" as="geometry" />
        </mxCell>
        <mxCell id="FXx3duRdWhhqkTk7xM2C-91" value="" style="shape=waypoint;sketch=0;fillStyle=solid;size=6;pointerEvents=1;points=[];fillColor=none;resizable=0;rotatable=0;perimeter=centerPerimeter;snapToPoint=1;strokeWidth=11;" vertex="1" parent="1">
          <mxGeometry x="900" y="440" width="20" height="20" as="geometry" />
        </mxCell>
        <mxCell id="FXx3duRdWhhqkTk7xM2C-132" value="" style="curved=1;endArrow=classic;html=1;rounded=0;exitX=-0.015;exitY=-0.029;exitDx=0;exitDy=0;exitPerimeter=0;entryX=-0.033;entryY=0.554;entryDx=0;entryDy=0;entryPerimeter=0;" edge="1" parent="1" source="FXx3duRdWhhqkTk7xM2C-43" target="FXx3duRdWhhqkTk7xM2C-69">
          <mxGeometry width="50" height="50" relative="1" as="geometry">
            <mxPoint x="800" y="400" as="sourcePoint" />
            <mxPoint x="720" y="290" as="targetPoint" />
            <Array as="points">
              <mxPoint x="680" y="390" />
              <mxPoint x="670" y="290" />
            </Array>
          </mxGeometry>
        </mxCell>
        <mxCell id="FXx3duRdWhhqkTk7xM2C-139" value="RESTful" style="edgeStyle=orthogonalEdgeStyle;rounded=0;orthogonalLoop=1;jettySize=auto;html=1;entryX=-0.2;entryY=0.65;entryDx=0;entryDy=0;entryPerimeter=0;endArrow=none;endFill=0;" edge="1" parent="1" source="FXx3duRdWhhqkTk7xM2C-43" target="FXx3duRdWhhqkTk7xM2C-91">
          <mxGeometry relative="1" as="geometry" />
        </mxCell>
        <mxCell id="FXx3duRdWhhqkTk7xM2C-144" value="" style="endArrow=classic;html=1;rounded=0;entryX=0.005;entryY=0.63;entryDx=0;entryDy=0;entryPerimeter=0;" edge="1" parent="1" source="FXx3duRdWhhqkTk7xM2C-91" target="FXx3duRdWhhqkTk7xM2C-158">
          <mxGeometry width="50" height="50" relative="1" as="geometry">
            <mxPoint x="960" y="380" as="sourcePoint" />
            <mxPoint x="1220.3646000000003" y="482.89999999999986" as="targetPoint" />
          </mxGeometry>
        </mxCell>
        <mxCell id="FXx3duRdWhhqkTk7xM2C-146" value="" style="endArrow=classic;html=1;rounded=0;exitX=0.208;exitY=0.617;exitDx=0;exitDy=0;exitPerimeter=0;entryX=0.005;entryY=0.63;entryDx=0;entryDy=0;entryPerimeter=0;" edge="1" parent="1" source="FXx3duRdWhhqkTk7xM2C-91" target="FXx3duRdWhhqkTk7xM2C-116">
          <mxGeometry width="50" height="50" relative="1" as="geometry">
            <mxPoint x="1000" y="540" as="sourcePoint" />
            <mxPoint x="1050" y="490" as="targetPoint" />
          </mxGeometry>
        </mxCell>
        <mxCell id="FXx3duRdWhhqkTk7xM2C-147" value="" style="endArrow=classic;html=1;rounded=0;entryX=0.5;entryY=0;entryDx=0;entryDy=0;entryPerimeter=0;" edge="1" parent="1" source="FXx3duRdWhhqkTk7xM2C-91" target="FXx3duRdWhhqkTk7xM2C-123">
          <mxGeometry width="50" height="50" relative="1" as="geometry">
            <mxPoint x="980" y="580" as="sourcePoint" />
            <mxPoint x="801" y="725" as="targetPoint" />
          </mxGeometry>
        </mxCell>
        <mxCell id="FXx3duRdWhhqkTk7xM2C-152" value="Front-End" style="text;html=1;align=center;verticalAlign=middle;resizable=0;points=[];autosize=1;strokeColor=none;fillColor=none;fontStyle=1;fontSize=16;" vertex="1" parent="1">
          <mxGeometry x="245" y="600" width="90" height="30" as="geometry" />
        </mxCell>
        <mxCell id="FXx3duRdWhhqkTk7xM2C-157" value="" style="edgeStyle=orthogonalEdgeStyle;rounded=0;orthogonalLoop=1;jettySize=auto;html=1;" edge="1" parent="1" target="FXx3duRdWhhqkTk7xM2C-159">
          <mxGeometry relative="1" as="geometry">
            <mxPoint x="1394.9999999999995" y="395" as="sourcePoint" />
          </mxGeometry>
        </mxCell>
        <mxCell id="FXx3duRdWhhqkTk7xM2C-158" value="Web Scraping" style="aspect=fixed;sketch=0;html=1;dashed=0;whitespace=wrap;fillColor=#2875E2;strokeColor=none;points=[[0.005,0.63,0],[0.1,0.2,0],[0.9,0.2,0],[0.5,0,0],[0.995,0.63,0],[0.72,0.99,0],[0.5,1,0],[0.28,0.99,0]];shape=mxgraph.kubernetes.icon2;kubernetesLabel=1;prIcon=api;labelPosition=center;verticalLabelPosition=bottom;align=center;verticalAlign=top;" vertex="1" parent="1">
          <mxGeometry x="1370" y="360" width="72.92" height="70" as="geometry" />
        </mxCell>
        <mxCell id="FXx3duRdWhhqkTk7xM2C-159" value="WebScraping&lt;div&gt;Database&lt;/div&gt;" style="verticalLabelPosition=bottom;aspect=fixed;html=1;shape=mxgraph.salesforce.data;spacingTop=-17;" vertex="1" parent="1">
          <mxGeometry x="1540" y="365" width="48.6" height="60" as="geometry" />
        </mxCell>
        <mxCell id="FXx3duRdWhhqkTk7xM2C-160" value="" style="edgeStyle=orthogonalEdgeStyle;rounded=0;orthogonalLoop=1;jettySize=auto;html=1;" edge="1" parent="1" target="FXx3duRdWhhqkTk7xM2C-162">
          <mxGeometry relative="1" as="geometry">
            <mxPoint x="1394.9999999999995" y="500" as="sourcePoint" />
          </mxGeometry>
        </mxCell>
        <mxCell id="FXx3duRdWhhqkTk7xM2C-161" value="Geoloc" style="aspect=fixed;sketch=0;html=1;dashed=0;whitespace=wrap;fillColor=#2875E2;strokeColor=none;points=[[0.005,0.63,0],[0.1,0.2,0],[0.9,0.2,0],[0.5,0,0],[0.995,0.63,0],[0.72,0.99,0],[0.5,1,0],[0.28,0.99,0]];shape=mxgraph.kubernetes.icon2;kubernetesLabel=1;prIcon=api;labelPosition=center;verticalLabelPosition=bottom;align=center;verticalAlign=top;" vertex="1" parent="1">
          <mxGeometry x="1370" y="465" width="72.92" height="70" as="geometry" />
        </mxCell>
        <mxCell id="FXx3duRdWhhqkTk7xM2C-162" value="Geoloc&lt;div&gt;Database&lt;/div&gt;" style="verticalLabelPosition=bottom;aspect=fixed;html=1;shape=mxgraph.salesforce.data;spacingTop=-17;" vertex="1" parent="1">
          <mxGeometry x="1540" y="470" width="48.6" height="60" as="geometry" />
        </mxCell>
        <mxCell id="FXx3duRdWhhqkTk7xM2C-163" value="" style="endArrow=classic;html=1;rounded=0;entryX=0.005;entryY=0.63;entryDx=0;entryDy=0;entryPerimeter=0;exitX=0.129;exitY=0.181;exitDx=0;exitDy=0;exitPerimeter=0;" edge="1" parent="1" source="FXx3duRdWhhqkTk7xM2C-91" target="FXx3duRdWhhqkTk7xM2C-161">
          <mxGeometry width="50" height="50" relative="1" as="geometry">
            <mxPoint x="920" y="460" as="sourcePoint" />
            <mxPoint x="1230" y="479" as="targetPoint" />
          </mxGeometry>
        </mxCell>
        <mxCell id="FXx3duRdWhhqkTk7xM2C-164" value="" style="edgeStyle=orthogonalEdgeStyle;rounded=0;orthogonalLoop=1;jettySize=auto;html=1;" edge="1" parent="1" target="FXx3duRdWhhqkTk7xM2C-166">
          <mxGeometry relative="1" as="geometry">
            <mxPoint x="1394.9999999999995" y="610" as="sourcePoint" />
          </mxGeometry>
        </mxCell>
        <mxCell id="FXx3duRdWhhqkTk7xM2C-165" value="Profile" style="aspect=fixed;sketch=0;html=1;dashed=0;whitespace=wrap;fillColor=#2875E2;strokeColor=none;points=[[0.005,0.63,0],[0.1,0.2,0],[0.9,0.2,0],[0.5,0,0],[0.995,0.63,0],[0.72,0.99,0],[0.5,1,0],[0.28,0.99,0]];shape=mxgraph.kubernetes.icon2;kubernetesLabel=1;prIcon=api;labelPosition=center;verticalLabelPosition=bottom;align=center;verticalAlign=top;" vertex="1" parent="1">
          <mxGeometry x="1370" y="575" width="72.92" height="70" as="geometry" />
        </mxCell>
        <mxCell id="FXx3duRdWhhqkTk7xM2C-166" value="Profile&lt;div&gt;Database&lt;/div&gt;" style="verticalLabelPosition=bottom;aspect=fixed;html=1;shape=mxgraph.salesforce.data;spacingTop=-17;" vertex="1" parent="1">
          <mxGeometry x="1540" y="580" width="48.6" height="60" as="geometry" />
        </mxCell>
        <mxCell id="FXx3duRdWhhqkTk7xM2C-167" value="" style="endArrow=classic;html=1;rounded=0;entryX=0.005;entryY=0.63;entryDx=0;entryDy=0;entryPerimeter=0;exitX=0.224;exitY=0.229;exitDx=0;exitDy=0;exitPerimeter=0;" edge="1" parent="1" source="FXx3duRdWhhqkTk7xM2C-91" target="FXx3duRdWhhqkTk7xM2C-165">
          <mxGeometry width="50" height="50" relative="1" as="geometry">
            <mxPoint x="920" y="460" as="sourcePoint" />
            <mxPoint x="1220" y="414" as="targetPoint" />
          </mxGeometry>
        </mxCell>
        <mxCell id="FXx3duRdWhhqkTk7xM2C-175" value="" style="endArrow=classic;html=1;rounded=0;exitX=0.467;exitY=0.083;exitDx=0;exitDy=0;exitPerimeter=0;entryX=0.005;entryY=0.63;entryDx=0;entryDy=0;entryPerimeter=0;" edge="1" parent="1" source="FXx3duRdWhhqkTk7xM2C-91" target="FXx3duRdWhhqkTk7xM2C-173">
          <mxGeometry width="50" height="50" relative="1" as="geometry">
            <mxPoint x="920" y="460" as="sourcePoint" />
            <mxPoint x="1230" y="124" as="targetPoint" />
          </mxGeometry>
        </mxCell>
      </root>
    </mxGraphModel>
  </diagram>
</mxfile>
